<svg width="48" height="60" viewBox="0 0 48 60" fill="none" xmlns="http://www.w3.org/2000/svg">
<path d="M42.6128 17.9233C38.4842 17.2635 35.6749 13.4108 36.3399 9.31456C36.5782 7.83273 37.2431 6.52378 38.1855 5.4865C35.2589 2.81568 31.5392 0.938692 27.3252 0.268341C15.8853 -1.55572 5.12106 6.16391 3.28256 17.514C1.44407 28.8641 9.22833 39.5439 20.6682 41.368C32.1082 43.192 42.8724 35.4689 44.7109 24.1187C45.0488 22.023 45.0594 19.952 44.782 17.955C44.0744 18.0468 43.3489 18.0397 42.6128 17.9233ZM22.7948 28.2361C18.6662 27.5763 15.8569 23.7236 16.5219 19.6274C17.1868 15.5312 21.0701 12.7439 25.1987 13.4037C29.3273 14.0635 32.1366 17.9162 31.4716 22.0124C30.8066 26.1086 26.9234 28.8959 22.7948 28.2361Z" fill="url(#paint0_linear)"/>
<path d="M11.4973 27.7457C6.70014 26.1192 7.10553 26.1333 7.28334 22.203C7.45758 18.2726 3.35031 17.1118 3.35031 17.1118C3.30408 17.2847 3.26496 17.4505 3.22229 17.6199C1.82475 26.5814 6.4121 35.0984 14.0541 39.1558C14.111 39.1699 14.143 39.177 14.143 39.177C17.5818 35.0067 16.2944 29.3722 11.4973 27.7457Z" fill="url(#paint1_radial)"/>
<path d="M19.5343 10.0304C19.2925 10.108 19.0187 10.0939 18.7804 9.97743C18.2932 9.74105 18.1119 9.17301 18.3679 8.70024L20.2313 5.28144C20.4873 4.80867 21.0847 4.62168 21.5684 4.85806C22.0556 5.09445 22.2369 5.66249 21.9809 6.13526L20.1175 9.55405C19.993 9.79044 19.7761 9.95274 19.5343 10.0304Z" fill="#F0A9D6"/>
<path d="M33.5085 29.5835C33.3093 29.513 33.1386 29.3683 33.0391 29.1778C32.8399 28.7862 33.007 28.3346 33.4124 28.1617L36.3533 26.9092C36.7587 26.7363 37.2459 26.9092 37.445 27.3043C37.6442 27.696 37.477 28.1476 37.0716 28.3205L34.1308 29.573C33.9281 29.6612 33.7076 29.6576 33.5085 29.5835Z" fill="#BDF6FF"/>
<path d="M18.1156 32.2649C17.9876 32.0991 17.9201 31.8874 17.9414 31.6722C17.9841 31.2347 18.3681 30.9419 18.8055 31.0124L21.9669 31.5205C22.4043 31.5911 22.7172 31.9968 22.6745 32.4343C22.6319 32.8718 22.2478 33.1646 21.8104 33.0941L18.6491 32.586C18.4286 32.5542 18.2437 32.4308 18.1156 32.2649Z" fill="#BDF6FF"/>
<path d="M28.2069 7.35606C28.8648 7.35606 29.3982 6.82689 29.3982 6.17412C29.3982 5.52136 28.8648 4.99219 28.2069 4.99219C27.549 4.99219 27.0156 5.52136 27.0156 6.17412C27.0156 6.82689 27.549 7.35606 28.2069 7.35606Z" fill="#C0F3F6"/>
<path d="M11.184 17.909C12.4743 17.909 13.5203 16.8712 13.5203 15.591C13.5203 14.3108 12.4743 13.2729 11.184 13.2729C9.89367 13.2729 8.84766 14.3108 8.84766 15.591C8.84766 16.8712 9.89367 17.909 11.184 17.909Z" fill="#F5C6A6"/>
<path d="M34.3694 16.7449C35.2335 16.7449 35.934 16.0499 35.934 15.1925C35.934 14.3352 35.2335 13.6401 34.3694 13.6401C33.5052 13.6401 32.8047 14.3352 32.8047 15.1925C32.8047 16.0499 33.5052 16.7449 34.3694 16.7449Z" fill="#EBC0F5"/>
<path d="M26.956 37C27.7396 37 28.3749 36.3698 28.3749 35.5923C28.3749 34.8148 27.7396 34.1846 26.956 34.1846C26.1724 34.1846 25.5371 34.8148 25.5371 35.5923C25.5371 36.3698 26.1724 37 26.956 37Z" fill="#F6A4CB"/>
<path d="M2.29367 50.2271L0 52.1393V57.9326L2.29367 60.0001V50.2271Z" fill="#8644F9"/>
<path d="M2.86523 50.2271H6.81249V46.4272H9.00303V60.0001H2.86523V58.0596H6.77337V52.1676H2.86523V50.2271Z" fill="#8644F9"/>
<path d="M12.2229 50.2271H17.4894L19.3386 52.1675V58.0349L17.4894 59.9366H17.0307V52.1922H12.5607V58.0984H16.3942V59.9366H12.2229L10.2812 58.0102V52.2064L12.2229 50.2271Z" fill="#8644F9"/>
<path d="M22.4645 50.354H27.0803L29.0219 52.2169V59.9365H26.7389V52.2698H22.8557V59.9365H20.5371V52.2169L22.4645 50.354Z" fill="#8644F9"/>
<path d="M30.2129 50.354H32.4426V58.0983H36.3685V59.9365H32.1687L30.2129 58.0419V50.354Z" fill="#8644F9"/>
<path d="M39.2843 50.354H37.0938V59.933H39.2843V50.354Z" fill="#8644F9"/>
<path d="M39.9668 50.3541H42.2711V49.0063H44.4226V50.3541H47.4915V52.1958H44.5186V58.0596H48L47.4239 59.9366H42.3245V52.2064H39.9668V50.3541Z" fill="#8644F9"/>
<defs>
<linearGradient id="paint0_linear" x1="12.6383" y1="5.68107" x2="34.2022" y2="35.5545" gradientUnits="userSpaceOnUse">
<stop stop-color="#6A90FF"/>
<stop offset="1" stop-color="#8644F9"/>
</linearGradient>
<radialGradient id="paint1_radial" cx="0" cy="0" r="1" gradientUnits="userSpaceOnUse" gradientTransform="translate(9.3123 28.2322) rotate(9.0612) scale(12.1206 12.0302)">
<stop stop-color="#7797FF"/>
<stop offset="0.6939" stop-color="#54B2F4"/>
</radialGradient>
</defs>
</svg>
