<svg xmlns="http://www.w3.org/2000/svg" xmlns:xlink="http://www.w3.org/1999/xlink" viewBox="0 0 795.33 193.17"><defs><style>.cls-1{mask:url(#mask);}.cls-14,.cls-15,.cls-2,.cls-4,.cls-6,.cls-8{mix-blend-mode:multiply;}.cls-2{fill:url(#linear-gradient);}.cls-3{mask:url(#mask-2);}.cls-4{fill:url(#linear-gradient-2);}.cls-5{mask:url(#mask-3);}.cls-6{fill:url(#linear-gradient-3);}.cls-7{isolation:isolate;}.cls-8{fill:#f8bfd7;}.cls-9{mask:url(#mask-4);}.cls-10{opacity:0.5;fill:url(#linear-gradient-4);}.cls-10,.cls-13,.cls-17{mix-blend-mode:soft-light;}.cls-11{fill:#ee3b79;}.cls-12{mask:url(#mask-5);}.cls-13{fill:url(#linear-gradient-5);}.cls-14{fill:#f7b0c2;}.cls-15{fill:#f6a7bd;}.cls-16{mask:url(#mask-6);}.cls-17{fill:url(#linear-gradient-6);}.cls-18{fill:url(#linear-gradient-7);}.cls-19{font-size:100px;fill:#3e333a;font-family:RussoOne-Regular, Russo One;}.cls-20{filter:url(#luminosity-noclip-6);}.cls-21{filter:url(#luminosity-noclip-5);}.cls-22{filter:url(#luminosity-noclip-4);}.cls-23{filter:url(#luminosity-noclip-3);}.cls-24{filter:url(#luminosity-noclip-2);}.cls-25{filter:url(#luminosity-noclip);}</style><filter id="luminosity-noclip" x="49.07" y="-9131.19" width="60.98" height="32766" filterUnits="userSpaceOnUse" color-interpolation-filters="sRGB"><feFlood flood-color="#fff" result="bg"/><feBlend in="SourceGraphic" in2="bg"/></filter><mask id="mask" x="49.07" y="-9131.19" width="60.98" height="32766" maskUnits="userSpaceOnUse"><g class="cls-25"/></mask><linearGradient id="linear-gradient" x1="78.48" y1="70.69" x2="79.53" y2="151.73" gradientUnits="userSpaceOnUse"><stop offset="0"/><stop offset="0.21" stop-color="#1d1d1d"/><stop offset="1" stop-color="#fff"/></linearGradient><filter id="luminosity-noclip-2" x="49.07" y="-9131.19" width="121.35" height="32766" filterUnits="userSpaceOnUse" color-interpolation-filters="sRGB"><feFlood flood-color="#fff" result="bg"/><feBlend in="SourceGraphic" in2="bg"/></filter><mask id="mask-2" x="49.07" y="-9131.19" width="121.35" height="32766" maskUnits="userSpaceOnUse"><g class="cls-24"/></mask><linearGradient id="linear-gradient-2" x1="24.53" y1="188.06" x2="207.66" y2="71.5" xlink:href="#linear-gradient"/><filter id="luminosity-noclip-3" x="49.41" y="-9131.19" width="160.29" height="32766" filterUnits="userSpaceOnUse" color-interpolation-filters="sRGB"><feFlood flood-color="#fff" result="bg"/><feBlend in="SourceGraphic" in2="bg"/></filter><mask id="mask-3" x="49.41" y="-9131.19" width="160.29" height="32766" maskUnits="userSpaceOnUse"><g class="cls-23"/></mask><linearGradient id="linear-gradient-3" x1="-15.28" y1="165.17" x2="206.27" y2="-15.34" xlink:href="#linear-gradient"/><filter id="luminosity-noclip-4" x="49.07" y="82.14" width="60.98" height="142.43" filterUnits="userSpaceOnUse" color-interpolation-filters="sRGB"><feFlood flood-color="#fff" result="bg"/><feBlend in="SourceGraphic" in2="bg"/></filter><mask id="mask-4" x="0" y="50.74" width="60.98" height="142.43" maskUnits="userSpaceOnUse"><g class="cls-22"><g transform="translate(-49.07 -31.39)"><g class="cls-1"><path class="cls-2" d="M110.05,82.41l-.18.06-.73.28-.71.31c-.35.17-.7.34-1,.53l-.67.4c-.21.13-.43.27-.64.42A15.41,15.41,0,0,0,104,86.12l-.27.27a16,16,0,0,0-4.24,8.16c0,.2-.08.41-.11.61v.06a3.41,3.41,0,0,0-.06.43c0,.15,0,.3,0,.45v0l0,.43q0,.48,0,1V174.4c0,.93,0,1.85-.08,2.77h0a50.06,50.06,0,0,1-50.08,47.39v-1.42l.16,0a50.21,50.21,0,0,0,37.44-40.55c.24-1.44.42-2.9.52-4.38.1-1.25.14-2.5.14-3.77V97.53A15.82,15.82,0,0,1,89,90.46a16,16,0,0,1,8-7.61l.52-.21h0l.77-.1h.27l.53-.06.26,0,.25,0h.2l.41,0h.22l.39,0,.29,0h.1l.84,0h.45s0,0,0,0c.38,0,.74,0,1.09,0h2l.8,0h0l1,0h.19l.27,0c.47,0,.87,0,1.19.09h0l.4,0h0l.22,0,.18,0h.13Z"/></g></g></g></mask><linearGradient id="linear-gradient-4" x1="78.48" y1="70.69" x2="79.53" y2="151.73" gradientUnits="userSpaceOnUse"><stop offset="0" stop-color="#fff"/><stop offset="0.21" stop-color="#fdfefe"/><stop offset="1" stop-color="#f1f2f2"/></linearGradient><filter id="luminosity-noclip-5" x="49.07" y="119.77" width="121.35" height="79.78" filterUnits="userSpaceOnUse" color-interpolation-filters="sRGB"><feFlood flood-color="#fff" result="bg"/><feBlend in="SourceGraphic" in2="bg"/></filter><mask id="mask-5" x="0" y="88.38" width="121.35" height="79.78" maskUnits="userSpaceOnUse"><g class="cls-21"><g transform="translate(-49.07 -31.39)"><g class="cls-3"><path class="cls-4" d="M170.41,119.77v.09c-6.79,15.12-19.59,25.31-34.25,25.31H101.05c-1.42,0-43.81-6.41-52,54.38V169.94c0-27.71,16.93-50.17,37.81-50.17Z"/></g></g></g></mask><linearGradient id="linear-gradient-5" x1="24.53" y1="188.06" x2="207.66" y2="71.5" xlink:href="#linear-gradient-4"/><filter id="luminosity-noclip-6" x="49.41" y="31.39" width="160.29" height="81.83" filterUnits="userSpaceOnUse" color-interpolation-filters="sRGB"><feFlood flood-color="#fff" result="bg"/><feBlend in="SourceGraphic" in2="bg"/></filter><mask id="mask-6" x="0.34" y="0" width="160.29" height="81.83" maskUnits="userSpaceOnUse"><g class="cls-20"><g transform="translate(-49.07 -31.39)"><g class="cls-5"><path class="cls-6" d="M209.7,31.39a51.88,51.88,0,0,1-46.1,27.45h-46a16.92,16.92,0,0,0-5.31.85s-52.12-7.26-62.84,53.54V81.56A50.17,50.17,0,0,1,99.57,31.39Z"/></g></g></g></mask><linearGradient id="linear-gradient-6" x1="49.04" y1="112.77" x2="185.45" y2="1.63" xlink:href="#linear-gradient-4"/><linearGradient id="linear-gradient-7" x1="129.25" y1="89.33" x2="129.39" y2="89.33" gradientUnits="userSpaceOnUse"><stop offset="0" stop-color="#fff"/><stop offset="0.15" stop-color="#fef2e4"/><stop offset="0.46" stop-color="#fcd2a0"/><stop offset="0.91" stop-color="#f89f34"/><stop offset="1" stop-color="#f7941d"/></linearGradient></defs><g class="cls-7"><g id="Logo"><path class="cls-8" d="M110.05,82.41l-.18.06-.73.28-.71.31c-.35.17-.7.34-1,.53l-.67.4c-.21.13-.43.27-.64.42A15.41,15.41,0,0,0,104,86.12l-.27.27a16,16,0,0,0-4.24,8.16c0,.2-.08.41-.11.61v.06a3.41,3.41,0,0,0-.06.43c0,.15,0,.3,0,.45v0l0,.43q0,.48,0,1V174.4c0,.93,0,1.85-.08,2.77h0a50.06,50.06,0,0,1-50.08,47.39V135.94c.19-1.13.4-2.23.62-3.31h0q.73-3.62,1.66-6.9h0a71.58,71.58,0,0,1,8.17-18.89c.08-.11.15-.23.22-.34s.15-.23.22-.34c.44-.68.89-1.33,1.34-2,.07-.11.15-.21.23-.32l.09-.13.13-.18h0c.07-.1.15-.2.22-.31l.24-.31.23-.3.23-.3,0-.07.18-.23.47-.6.48-.58,0,0,.2-.24.2-.24,0,0,.48-.55h0c.16-.19.33-.37.49-.54h0l.47-.51,0,0h0v0l.47-.49,0,0,.24-.25a3,3,0,0,1,.25-.25l.25-.26.49-.49.26-.25.25-.24h0l.25-.24h0c.25-.24.5-.46.75-.69h0l0,0,.22-.2h0l.25-.22h0l.16-.14h0l.6-.52h0l.31-.26.21-.17h0l.26-.21h0l.52-.41h0l.06,0,.2-.16h0l.26-.2h0l.07,0,.19-.15.27-.19h0l.52-.39h0a2.48,2.48,0,0,0,.26-.19h0l.26-.18h0l.26-.19h0l.27-.18h0l.26-.18h0l.26-.17h0l.26-.17h0l.26-.17h0c.17-.12.35-.23.53-.34h0l.53-.33h0l.35-.21c.59-.36,1.19-.7,1.78-1h0l1.06-.57.54-.27h0l.78-.38.24-.11.72-.34L82.1,87l.52-.23.33-.14.64-.27.38-.15.36-.14.41-.16.52-.2.52-.19L86,85.4c.51-.18,1-.36,1.52-.52l.12,0a55.71,55.71,0,0,1,6.27-1.61l.37-.07.34-.06.22,0L95,83l.38-.06.62-.1.18,0,.45-.07.34-.05h.07l.3,0,.14,0h0l.77-.1h.27l.53-.06h.13l.13,0,.25,0h.2l.41,0h.22l.39,0,.29,0h.1l.84,0h.45s0,0,0,0c.38,0,.74,0,1.09,0h2l.8,0h0l1,0h.19l.27,0c.47,0,.87,0,1.19.09h0l.4,0h0l.22,0,.18,0h.13Z" transform="translate(-49.07 -31.39)"/><g class="cls-9"><path class="cls-10" d="M110.05,82.41l-.18.06-.73.28-.71.31c-.35.17-.7.34-1,.53l-.67.4c-.21.13-.43.27-.64.42A15.41,15.41,0,0,0,104,86.12l-.27.27a16,16,0,0,0-4.24,8.16c0,.2-.08.41-.11.61v.06a3.41,3.41,0,0,0-.06.43c0,.15,0,.3,0,.45v0l0,.43q0,.48,0,1V174.4c0,.93,0,1.85-.08,2.77h0a50.06,50.06,0,0,1-50.08,47.39v-1.42l.16,0a50.21,50.21,0,0,0,37.44-40.55c.24-1.44.42-2.9.52-4.38.1-1.25.14-2.5.14-3.77V97.53A15.82,15.82,0,0,1,89,90.46a16,16,0,0,1,8-7.61l.52-.21h0l.77-.1h.27l.53-.06.26,0,.25,0h.2l.41,0h.22l.39,0,.29,0h.1l.84,0h.45s0,0,0,0c.38,0,.74,0,1.09,0h2l.8,0h0l1,0h.19l.27,0c.47,0,.87,0,1.19.09h0l.4,0h0l.22,0,.18,0h.13Z" transform="translate(-49.07 -31.39)"/></g><path class="cls-11" d="M170.41,119.77v.09h0v.06c-.06,27.63-17,50-37.81,50H98.92c-.25,0-1.78-.21-4.17-.2h-.51l-1.61.06-.26,0-.47,0-.32,0-.32,0-.33,0-.61.07-.4,0-.3,0-.41.06-.71.11-.74.13-.37.07h-.06l-.4.08-.3.06-.39.08-.38.09-.4.1-.39.1-.35.09-1.28.36-.4.12c-1.11.35-2.25.76-3.4,1.24l-.36.15-.34.15-.28.13-.18.08-.34.15-.35.17L77,174l-.38.19a3.9,3.9,0,0,1-.35.19l-.24.13-.4.22-.41.24-.55.32-.29.17-.51.32c-.34.21-.68.43-1,.67-1,.7-2.08,1.47-3.12,2.32l-.36.31h0c-.21.18-.42.35-.62.54l-.21.18-.21.18-.41.38-.2.19c-.28.26-.56.53-.83.81l-.19.18-.2.21-.36.37c-.28.29-.57.6-.85.91l-.35.39a50.32,50.32,0,0,0-3.35,4.25c-.12.18-.24.36-.37.53l-.4.6-.19.3c-.65,1-1.28,2-1.9,3.12l-.15.26q-.74,1.33-1.44,2.76l-.16.33c-.11.23-.23.46-.34.7s-.1.23-.16.35-.21.47-.32.71-.11.23-.16.35l-.42,1-.16.39c-.22.53-.44,1.08-.65,1.63l-.3.77c-.22.59-.44,1.2-.66,1.81,0,.1-.07.2-.1.29l-.15.44c0,.14-.09.28-.14.42-.17.51-.33,1-.5,1.55l-.12.41c-.08.24-.15.49-.22.73l-.27.92c-.23.8-.45,1.62-.66,2.45l-.21.83,0,.11c0,.15-.07.31-.11.46l-.12.5c0,.11-.05.23-.08.35s-.07.31-.11.47l-.15.69c0,.17-.07.34-.11.52-.15.68-.29,1.38-.43,2.09,0,.14,0,.28-.08.42s0,.15,0,.23h0c-.35,1.91-.68,3.89-1,5.95-.06.41-.11.81-.16,1.22V169.94c0-27.71,16.93-50.17,37.81-50.17Z" transform="translate(-49.07 -31.39)"/><g class="cls-12"><path class="cls-13" d="M170.41,119.77v.09c-6.79,15.12-19.59,25.31-34.25,25.31H101.05c-1.42,0-43.81-6.41-52,54.38V169.94c0-27.71,16.93-50.17,37.81-50.17Z" transform="translate(-49.07 -31.39)"/></g><path class="cls-14" d="M99.06,170l0,4.46-.1,2.77h0a65.52,65.52,0,0,0-11.81.89c-27.33,4.7-34.21,27-36.88,38.62,0-.07,0-.15,0-.22l.09-.43c.14-.7.29-1.4.44-2.08,0-.18.07-.35.11-.52s.11-.46.16-.68.08-.32.11-.48l.09-.35.12-.5c0-.15.07-.3.11-.45l0-.11.21-.83c.22-.83.45-1.64.68-2.44l.27-.92c.07-.25.15-.49.22-.73s.09-.27.13-.41l.51-1.54c.05-.15.1-.29.14-.43l.15-.43c0-.09.07-.19.11-.29.21-.61.44-1.21.66-1.8l.3-.77.66-1.62.17-.39.42-1c.05-.12.1-.23.16-.35l.32-.71c.06-.11.11-.23.17-.34l.33-.7c.06-.11.11-.22.16-.33.48-.95,1-1.86,1.46-2.75l.14-.25c.62-1.09,1.26-2.13,1.9-3.11.07-.1.13-.2.2-.29l.4-.6.37-.53a47.82,47.82,0,0,1,3.35-4.22l.34-.38c.28-.31.57-.61.85-.91l.36-.36a1.89,1.89,0,0,1,.2-.2,1.7,1.7,0,0,1,.19-.19l.82-.8.21-.19.41-.37.2-.18.21-.18.62-.53h0l.36-.3c1-.84,2.06-1.61,3.1-2.3l1-.65.51-.32.29-.17.54-.31.41-.24.39-.21.24-.13.35-.18.37-.19.77-.38.35-.16.34-.15.17-.08L79,173l.34-.14.35-.15c1.15-.47,2.27-.87,3.38-1.21l.39-.12c.42-.12.85-.24,1.26-.34l.35-.09.39-.1.39-.09.38-.08.38-.08.3-.06.4-.08h.05l.37-.07.73-.12.71-.1.4-.06.29,0,.4,0,.6-.06.33,0,.32,0,.31,0,.46,0h.26c.56,0,1.09-.05,1.59-.05h.5a39,39,0,0,1,4.12.24Z" transform="translate(-49.07 -31.39)"/><path class="cls-11" d="M210,31.39a50.17,50.17,0,0,1-50.16,50.17H115.2a15.94,15.94,0,0,0-5.15.85s-50.58-7.26-61,53.53V81.56A50.17,50.17,0,0,1,99.23,31.39Z" transform="translate(-49.07 -31.39)"/><path class="cls-15" d="M110,82.39l0,.08A16,16,0,0,0,99.29,97.53s-38.52-7.36-50.16,40v-1.63C59.23,76.93,107.17,82,110,82.39Z" transform="translate(-49.07 -31.39)"/><g class="cls-16"><path class="cls-17" d="M209.7,31.39a51.88,51.88,0,0,1-46.1,27.45h-46a16.92,16.92,0,0,0-5.31.85s-52.12-7.26-62.84,53.54V81.56A50.17,50.17,0,0,1,99.57,31.39Z" transform="translate(-49.07 -31.39)"/></g><polygon class="cls-18" points="129.39 89.37 129.25 89.36 129.25 89.3 129.39 89.3 129.39 89.37"/><text class="cls-19" transform="translate(175.25 138.56)">FLEXHEDGE</text></g></g></svg>