<svg width="32" height="31" viewBox="0 0 32 31" fill="none" xmlns="http://www.w3.org/2000/svg">
<g clip-path="url(#clip0)">
<path d="M6.64991 13.54C4.36991 13.86 2.55991 14.73 1.62991 16.13C-0.550088 19.44 3.03991 24.45 9.63991 27.34C10.8599 27.87 12.0999 28.29 13.3199 28.61C13.3299 28.37 13.4099 28.13 13.5499 27.92C14.3399 26.73 16.9099 26.6 19.2899 27.64C20.1499 28.02 20.8699 28.49 21.3999 29.01C23.2699 28.61 24.7499 27.79 25.5499 26.58C26.2799 25.47 26.3599 24.17 25.8999 22.81" stroke="url(#paint0_linear)" stroke-width="2" stroke-miterlimit="10"/>
<path d="M17.9794 21.4396C18.7694 20.2496 21.3394 20.1196 23.7194 21.1596C24.5794 21.5396 25.2994 22.0096 25.8294 22.5296C27.6994 22.1296 29.1794 21.3096 29.9794 20.0996C32.1594 16.7896 28.5694 11.7796 21.9694 8.88957C15.3694 5.99957 8.23945 6.34957 6.06945 9.64957C3.89945 12.9496 7.47945 17.9696 14.0794 20.8596C15.2994 21.3896 16.5394 21.8096 17.7594 22.1296C17.7694 21.8796 17.8394 21.6496 17.9794 21.4396Z" stroke="url(#paint1_linear)" stroke-width="2" stroke-miterlimit="10"/>
<path d="M21.7422 3.63952C21.9402 2.73869 20.4389 1.64333 18.3892 1.19295C16.3394 0.742573 14.5172 1.10773 14.3193 2.00856C14.1214 2.90938 15.6226 4.00475 17.6724 4.45513C19.7222 4.90551 21.5443 4.54035 21.7422 3.63952Z" stroke="url(#paint2_linear)" stroke-width="2" stroke-miterlimit="10"/>
<path d="M12.3516 6.28698C12.5495 5.38615 11.0483 4.29079 8.99854 3.84041C6.94875 3.39003 5.12662 3.75519 4.92869 4.65602C4.73077 5.55685 6.23199 6.65221 8.28177 7.10259C10.3316 7.55297 12.1537 7.18781 12.3516 6.28698Z" stroke="url(#paint3_linear)" stroke-width="2" stroke-miterlimit="10"/>
<path d="M30.9167 9.53136C31.329 8.66341 30.1833 7.25665 28.3576 6.38928C26.5319 5.52192 24.7176 5.52239 24.3052 6.39035C23.8929 7.2583 25.0386 8.66505 26.8643 9.53242C28.69 10.3998 30.5043 10.3993 30.9167 9.53136Z" stroke="url(#paint4_linear)" stroke-width="2" stroke-miterlimit="10"/>
</g>
<defs>
<linearGradient id="paint0_linear" x1="0.1524" y1="21.2765" x2="27.0256" y2="21.2765" gradientUnits="userSpaceOnUse">
<stop stop-color="#6A90FF"/>
<stop offset="1" stop-color="#8644F9"/>
</linearGradient>
<linearGradient id="paint1_linear" x1="4.59616" y1="14.7311" x2="31.4566" y2="14.7311" gradientUnits="userSpaceOnUse">
<stop stop-color="#6A90FF"/>
<stop offset="1" stop-color="#8644F9"/>
</linearGradient>
<linearGradient id="paint2_linear" x1="17.6492" y1="4.56402" x2="18.4137" y2="1.08436" gradientUnits="userSpaceOnUse">
<stop stop-color="#6A90FF"/>
<stop offset="1" stop-color="#8644F9"/>
</linearGradient>
<linearGradient id="paint3_linear" x1="8.25858" y1="7.21148" x2="9.02312" y2="3.73182" gradientUnits="userSpaceOnUse">
<stop stop-color="#6A90FF"/>
<stop offset="1" stop-color="#8644F9"/>
</linearGradient>
<linearGradient id="paint4_linear" x1="26.8151" y1="9.63749" x2="28.408" y2="6.28481" gradientUnits="userSpaceOnUse">
<stop stop-color="#6A90FF"/>
<stop offset="1" stop-color="#8644F9"/>
</linearGradient>
<clipPath id="clip0">
<rect width="32" height="30.09" fill="white"/>
</clipPath>
</defs>
</svg>
