<svg width="33" height="29" viewBox="0 0 33 29" fill="none" xmlns="http://www.w3.org/2000/svg">
<g clip-path="url(#clip0)">
<path d="M27.04 10.1396V21.7496C27.04 24.6796 24.66 27.0596 21.73 27.0596C18.8 27.0596 16.42 24.6796 16.42 21.7496V7.92957C16.42 4.54957 13.68 1.80957 10.3 1.80957C7.38 1.81957 5 4.18957 5 7.12957V18.2696" stroke="url(#paint0_linear)" stroke-width="2" stroke-miterlimit="10" stroke-linecap="round" stroke-linejoin="round"/>
<path d="M27.0391 9C29.2482 9 31.0391 7.20914 31.0391 5C31.0391 2.79086 29.2482 1 27.0391 1C24.8299 1 23.0391 2.79086 23.0391 5C23.0391 7.20914 24.8299 9 27.0391 9Z" stroke="url(#paint1_linear)" stroke-width="2" stroke-miterlimit="10"/>
<path d="M5 27.4297C7.20914 27.4297 9 25.6388 9 23.4297C9 21.2205 7.20914 19.4297 5 19.4297C2.79086 19.4297 1 21.2205 1 23.4297C1 25.6388 2.79086 27.4297 5 27.4297Z" stroke="url(#paint2_linear)" stroke-width="2" stroke-miterlimit="10"/>
</g>
<defs>
<linearGradient id="paint0_linear" x1="4.26533" y1="14.4369" x2="27.7747" y2="14.4369" gradientUnits="userSpaceOnUse">
<stop stop-color="#6A90FF"/>
<stop offset="1" stop-color="#8644F9"/>
</linearGradient>
<linearGradient id="paint1_linear" x1="22.7724" y1="5.00075" x2="31.3057" y2="5.00075" gradientUnits="userSpaceOnUse">
<stop stop-color="#6A90FF"/>
<stop offset="1" stop-color="#8644F9"/>
</linearGradient>
<linearGradient id="paint2_linear" x1="0.733333" y1="23.4304" x2="9.26667" y2="23.4304" gradientUnits="userSpaceOnUse">
<stop stop-color="#6A90FF"/>
<stop offset="1" stop-color="#8644F9"/>
</linearGradient>
<clipPath id="clip0">
<rect width="32.04" height="28.43" fill="white"/>
</clipPath>
</defs>
</svg>
