<svg width="32" height="30" viewBox="0 0 32 30" fill="none" xmlns="http://www.w3.org/2000/svg">
<g clip-path="url(#clip0)">
<path d="M20.4508 19.9404C20.4508 21.4304 18.4608 22.6304 16.0008 22.6304C13.5408 22.6304 11.5508 21.4204 11.5508 19.9404" stroke="url(#paint0_linear)" stroke-width="2" stroke-miterlimit="10" stroke-linecap="round" stroke-linejoin="round"/>
<path d="M16.0008 12.7501C18.4584 12.7501 20.4508 11.5458 20.4508 10.0601C20.4508 8.57447 18.4584 7.37012 16.0008 7.37012C13.5431 7.37012 11.5508 8.57447 11.5508 10.0601C11.5508 11.5458 13.5431 12.7501 16.0008 12.7501Z" stroke="url(#paint1_linear)" stroke-width="2" stroke-miterlimit="10" stroke-linecap="round" stroke-linejoin="round"/>
<path d="M30.34 7.41C29.85 7.5 29.34 7.54 28.81 7.54C25.82 7.54 23.4 6.08 23.39 4.27C23.39 3.62 23.71 3.01 24.25 2.5C21.89 1.55 19.05 1 16 1C7.71 1 1 5.06 1 10.07C1 10.77 1.15 11.46 1.4 12.11C1.92 12.01 2.48 11.95 3.06 11.95C6.01 11.95 8.41 13.4 8.41 15.18C8.41 16 7.9 16.75 7.06 17.32C9.56 18.45 12.65 19.12 16.01 19.12C24.29 19.12 31.01 15.06 31.01 10.05C31 9.14 30.77 8.25 30.34 7.41Z" stroke="url(#paint2_linear)" stroke-width="2" stroke-miterlimit="10" stroke-linecap="round" stroke-linejoin="round"/>
<path d="M6.34 13C3.07 14.67 1 17.16 1 19.94C1 20.64 1.15 21.33 1.4 21.98C1.92 21.88 2.48 21.82 3.06 21.82C6.01 21.82 8.41 23.27 8.41 25.05C8.41 25.87 7.9 26.62 7.06 27.19C9.55 28.33 12.64 29 16 29C24.28 29 31 24.94 31 19.93C31 19.01 30.77 18.11 30.34 17.28C29.85 17.37 29.34 17.41 28.81 17.41C27.82 17.41 26.89 17.25 26.09 16.97" stroke="url(#paint3_linear)" stroke-width="2" stroke-miterlimit="10" stroke-linecap="round" stroke-linejoin="round"/>
</g>
<defs>
<linearGradient id="paint0_linear" x1="11.2541" y1="21.2857" x2="20.7474" y2="21.2857" gradientUnits="userSpaceOnUse">
<stop stop-color="#6A90FF"/>
<stop offset="1" stop-color="#8644F9"/>
</linearGradient>
<linearGradient id="paint1_linear" x1="11.2541" y1="10.0606" x2="20.7474" y2="10.0606" gradientUnits="userSpaceOnUse">
<stop stop-color="#6A90FF"/>
<stop offset="1" stop-color="#8644F9"/>
</linearGradient>
<linearGradient id="paint2_linear" x1="-0.000333341" y1="10.0617" x2="32.0103" y2="10.0617" gradientUnits="userSpaceOnUse">
<stop stop-color="#6A90FF"/>
<stop offset="1" stop-color="#8644F9"/>
</linearGradient>
<linearGradient id="paint3_linear" x1="0" y1="21.0015" x2="32" y2="21.0015" gradientUnits="userSpaceOnUse">
<stop stop-color="#6A90FF"/>
<stop offset="1" stop-color="#8644F9"/>
</linearGradient>
<clipPath id="clip0">
<rect width="32" height="30" fill="white"/>
</clipPath>
</defs>
</svg>
