<svg width="70" height="78" viewBox="0 0 70 78" fill="none" xmlns="http://www.w3.org/2000/svg">
<g clip-path="url(#clip0)">
<path d="M8.27605 42.1024C7.67139 41.3417 7.35077 40.3595 7.44804 39.3588C7.63901 37.3144 9.41874 35.8996 11.4571 36.1753L26.1765 38.1566C28.2073 38.4288 29.6834 40.2868 29.4903 42.3257C29.2994 44.3701 27.5141 45.787 25.4812 45.5092L10.7619 43.5279C9.74168 43.4127 8.87862 42.8575 8.27605 42.1024Z" fill="#F0A9D6"/>
<path d="M41.1848 38.0598C40.2774 38.4003 39.24 38.3952 38.3211 37.9929C36.4379 37.1732 35.646 35.0419 36.5406 33.1947L42.9971 19.8184C43.8864 17.9687 46.1101 17.1488 47.9879 17.9659C49.8711 18.7857 50.663 20.917 49.7684 22.7642L43.3198 36.1377C42.8859 37.0677 42.0975 37.722 41.1848 38.0598Z" fill="#F0A9D6"/>
<path d="M69.6675 37.8346C68.493 37.9829 67.277 37.977 66.0492 37.7753C59.1625 36.6661 54.4764 30.1886 55.5856 23.3019C55.9831 20.8106 57.0923 18.61 58.6642 16.866C53.7883 12.3817 47.5897 9.22601 40.5547 8.09305C21.4724 5.02636 3.51716 18.0109 0.450474 37.0931C-2.61622 56.1754 10.3683 74.1307 29.4506 77.1974C48.5328 80.2641 66.4881 67.2796 69.5548 48.1973C70.1183 44.6798 70.1361 41.1979 69.6675 37.8346ZM30.5361 22.6732C31.4318 20.2056 34.1544 18.9362 36.6161 19.826C39.0836 20.7216 40.353 23.4443 39.4633 25.906C38.5735 28.3676 35.8449 29.6429 33.3833 28.7532C30.9216 27.8634 29.6404 25.1408 30.5361 22.6732ZM18.8981 35.5924C16.4305 34.6967 15.1611 31.9741 16.0508 29.5124C16.9406 27.0508 19.6692 25.7755 22.1308 26.6652C24.5984 27.5609 25.8678 30.2835 24.9781 32.7452C24.0883 35.2128 21.3657 36.4822 18.8981 35.5924ZM47.4711 44.6501C46.3618 51.5368 39.8844 56.2229 32.9977 55.1136C26.111 54.0044 21.425 47.527 22.5342 40.6403C23.6434 33.7536 30.1208 29.0675 37.0076 30.1768C43.8943 31.286 48.5803 37.7634 47.4711 44.6501Z" fill="url(#paint0_linear)"/>
<path d="M24.3961 13.4194C26.5433 9.16048 29.7761 5.60146 33.8037 3.11014C34.4859 2.68899 34.7469 1.78738 34.3376 1.0815C33.9402 0.399357 32.9911 0.126499 32.3089 0.54765C27.8661 3.29403 24.1944 7.25047 21.8395 11.9187C21.4777 12.6365 21.6497 13.5262 22.3733 13.9474C23.0258 14.3389 24.0342 14.1372 24.3961 13.4194Z" fill="url(#paint1_linear)"/>
<path d="M29.4394 14.173C32.2866 9.57003 38.0937 8.43114 43.023 7.57698C43.8119 7.44055 44.2568 6.47368 44.061 5.75001C43.8297 4.91364 43.0289 4.57554 42.2341 4.71196C36.4447 5.72035 30.1749 7.33378 26.8769 12.6723C25.8685 14.3035 28.4369 15.7924 29.4394 14.173Z" fill="url(#paint2_linear)"/>
<path d="M19.8125 15.4544C19.7947 15.3536 19.7769 15.2527 19.7651 15.1519C19.7829 15.2943 19.7829 15.2705 19.7591 15.0867C19.7413 14.885 19.7176 14.6774 19.7117 14.4757C19.6879 14.0664 19.6879 13.6571 19.7057 13.2419C19.7176 13.0343 19.7295 12.8326 19.7473 12.625C19.7532 12.5776 19.8066 12.1505 19.771 12.4055C19.8303 11.9962 19.9134 11.5929 20.0142 11.1955C20.204 10.4481 20.4531 9.75406 20.6963 9.238C21.0522 8.49654 21.4853 7.7966 21.9835 7.14411C22.4521 6.52128 22.1022 5.45951 21.4497 5.11547C20.6667 4.70025 19.9252 4.98497 19.421 5.64932C17.1432 8.66263 16.3306 12.5479 16.9594 16.2433C17.0899 17.0085 18.0745 17.5068 18.7863 17.2814C19.6049 17.0145 19.9549 16.2789 19.8125 15.4544Z" fill="url(#paint3_linear)"/>
</g>
<defs>
<linearGradient id="paint0_linear" x1="-0.000334951" y1="42.6475" x2="69.9999" y2="42.6475" gradientUnits="userSpaceOnUse">
<stop stop-color="#6A90FF"/>
<stop offset="1" stop-color="#8644F9"/>
</linearGradient>
<linearGradient id="paint1_linear" x1="22.8522" y1="7.24905" x2="33.2107" y2="7.24905" gradientUnits="userSpaceOnUse">
<stop stop-color="#6A90FF"/>
<stop offset="1" stop-color="#8644F9"/>
</linearGradient>
<linearGradient id="paint2_linear" x1="27.9019" y1="9.77864" x2="42.6781" y2="9.77864" gradientUnits="userSpaceOnUse">
<stop stop-color="#6A90FF"/>
<stop offset="1" stop-color="#8644F9"/>
</linearGradient>
<linearGradient id="paint3_linear" x1="17.91" y1="11.1321" x2="20.9331" y2="11.1321" gradientUnits="userSpaceOnUse">
<stop stop-color="#6A90FF"/>
<stop offset="1" stop-color="#8644F9"/>
</linearGradient>
<clipPath id="clip0">
<rect width="70" height="77.296" fill="white" transform="translate(0 0.352051)"/>
</clipPath>
</defs>
</svg>
