<svg width="70" height="66" viewBox="0 0 70 66" fill="none" xmlns="http://www.w3.org/2000/svg">
<g clip-path="url(#clip0)">
<path d="M4.50587 62.4046C3.64879 62.68 2.69282 62.6359 1.85772 62.2228C0.149066 61.3856 -0.493741 59.3751 0.412781 57.6952L6.95073 45.5611C7.85176 43.8866 9.945 43.2147 11.6482 44.0519C13.3568 44.8891 13.9996 46.905 13.0931 48.5795L6.55516 60.7136C6.11563 61.5563 5.35745 62.1292 4.50587 62.4046Z" fill="#F0A9D6"/>
<path d="M50.799 26.641C50.0958 26.0847 49.5958 25.264 49.4695 24.3387C49.2057 22.4495 50.5078 20.7915 52.4033 20.6043L66.0945 19.2438C67.9845 19.0565 69.7096 20.417 69.9733 22.3007C70.2371 24.19 68.9295 25.8479 67.0395 26.0352L53.3483 27.4012C52.4033 27.5113 51.5078 27.1974 50.799 26.641Z" fill="#F0A9D6"/>
<path d="M64.5277 28.5352C63.4399 28.6729 62.3136 28.6674 61.1763 28.4802C54.7977 27.4502 50.4574 21.4354 51.4848 15.0406C51.8529 12.7273 52.8803 10.6838 54.3362 9.06444C49.8201 4.89488 44.0788 1.96462 37.5628 0.918099C19.8884 -1.92954 3.25782 10.122 0.417383 27.8412C-2.42305 45.5605 9.60348 62.2332 27.2779 65.0809C44.9524 67.9285 61.5829 55.8715 64.4233 38.1522C64.9453 34.886 64.9618 31.6528 64.5277 28.5352ZM36.9475 15.988C37.2661 14.0161 39.1176 12.6722 41.0845 12.9917C43.0514 13.3111 44.392 15.1673 44.0733 17.1392C43.7546 19.111 41.9031 20.455 39.9363 20.1355C37.9694 19.8161 36.6288 17.9599 36.9475 15.988ZM16.7897 24.3767C16.4711 26.3486 14.6196 27.6925 12.6527 27.3731C10.6858 27.0536 9.34525 25.1974 9.66391 23.2255C9.98257 21.2537 11.8341 19.9097 13.8009 20.2292C15.7678 20.5431 17.1084 22.3993 16.7897 24.3767ZM43.9689 34.8639C42.9415 41.2587 36.942 45.6101 30.5634 44.5801C24.1847 43.5501 19.8444 37.5353 20.8718 31.1405C21.8992 24.7457 27.8987 20.3944 34.2774 21.4244C40.656 22.4489 44.9963 28.4636 43.9689 34.8639Z" fill="url(#paint0_linear)"/>
<path d="M6.31207 40.5377C6.7461 39.2048 7.28452 37.9269 7.94381 36.6876C8.26796 36.0763 8.61409 35.4759 8.99318 34.892C9.2514 34.4955 9.5261 34.0768 10.0041 33.9612C9.42721 33.5205 8.84484 33.0744 8.26796 32.6337C8.28444 33.7188 8.30642 34.8039 8.33938 35.889C8.37235 36.8529 8.21851 38.0922 8.86681 38.8908C9.66345 39.8823 10.9601 39.7115 11.8336 38.9349C12.4929 38.3511 12.9709 37.5359 13.4434 36.7978C13.8225 36.2029 14.2016 35.542 14.7674 35.0958C14.8114 35.0463 14.8718 35.0022 14.9378 34.9747C15.152 34.87 15.1465 34.8535 14.9158 34.9196C14.707 34.7874 14.4982 34.6607 14.2895 34.5285C14.3334 34.7048 14.3444 34.7598 14.3224 34.6937C14.2345 35.0903 14.4708 35.7733 14.5697 36.1589C14.8169 37.1283 15.2894 38.1583 16.3607 38.4172C17.4266 38.676 18.399 38.0536 19.0638 37.266C19.5418 36.6987 19.6187 35.8725 19.0638 35.3161C18.5748 34.8259 17.6024 34.7433 17.1189 35.3161C17.064 35.3822 16.6904 35.7017 16.6904 35.7513C16.6904 35.5971 17.4101 35.9826 17.3991 35.9881C17.3826 35.9991 17.3442 35.9055 17.3387 35.8504C17.3222 35.575 17.1739 35.2611 17.1189 34.9802C17.064 34.6993 17.042 34.4183 16.998 34.1374C16.7728 32.6778 15.4487 31.769 14.0312 32.3473C12.9599 32.7825 12.1797 33.7298 11.5424 34.6607C11.2457 35.0903 10.9765 35.5365 10.6908 35.9716C10.5645 36.1644 10.4326 36.3627 10.2843 36.5444C10.2293 36.616 10.114 36.6932 10.081 36.7758C9.96563 37.0291 9.83926 36.616 10.4271 36.8198C10.6304 36.9355 10.8337 37.0567 11.0315 37.1723C11.1578 37.2825 11.1304 37.6295 11.1194 37.1228C11.1139 36.9575 11.1084 36.7868 11.1029 36.6215C11.0864 36.1644 11.0699 35.7017 11.0589 35.2445C11.037 34.3688 11.015 33.493 11.004 32.6172C10.993 31.7084 10.1359 31.0695 9.26788 31.2898C7.53175 31.7249 6.59776 33.4159 5.79013 34.8755C4.92207 36.4398 4.21882 38.0922 3.65843 39.7942C3.10902 41.4906 5.76266 42.2177 6.31207 40.5377Z" fill="#F0A9D6"/>
<path d="M42.6846 24.818C42.8604 25.6662 43.2175 26.5145 43.7174 27.225C44.2998 28.0457 45.1624 29.1308 46.2612 29.1583C47.6402 29.1858 48.0742 27.6767 48.4149 26.6081C48.5577 26.1564 48.6786 25.6938 48.7665 25.2256C48.8159 24.9667 48.8544 24.7023 48.8929 24.4379C48.9643 23.9037 48.8379 24.5977 48.9203 24.3168C49.0137 23.9753 48.5138 24.7849 48.7775 24.5811C48.5742 24.6968 48.3709 24.818 48.1731 24.9337C47.2721 24.5536 46.9974 24.504 47.349 24.7905C47.382 24.8235 47.4204 24.851 47.4534 24.8841C47.5743 24.9943 47.6951 25.1044 47.816 25.2146C48.0248 25.4018 48.2336 25.5891 48.4423 25.7764C48.8929 26.184 49.3489 26.6852 49.8928 26.9716C50.6345 27.3682 51.5685 27.258 52.1563 26.6411C52.6178 26.1564 52.7607 25.479 52.7717 24.829C52.7827 24.1075 52.1344 23.419 51.3982 23.452C50.6455 23.4851 50.0356 24.0579 50.0246 24.829C50.0246 24.9006 50.0082 24.9832 50.0136 25.0548C50.0246 25.2091 50.0961 24.7794 50.0082 25.0053C50.0356 24.9502 50.0576 24.8951 50.0851 24.84C50.0027 24.9777 50.0411 24.9447 50.2114 24.7519C50.3268 24.5701 50.4971 24.504 50.7169 24.5481C50.8762 24.471 51.0301 24.471 51.1729 24.5481C51.2663 24.5756 51.2773 24.6417 51.1674 24.5426C51.0795 24.4655 50.9916 24.3884 50.9092 24.3057C50.7334 24.1515 50.5631 23.9918 50.3872 23.8376C49.6236 23.1491 48.6676 21.9208 47.5083 22.2568C46.8875 22.4385 46.4645 22.9398 46.2887 23.5456C46.2667 23.6172 46.2557 23.6889 46.2447 23.7605C46.2282 23.8816 46.2117 24.0028 46.1953 24.124C46.2117 24.0028 46.2117 23.9973 46.1953 24.0964C46.1568 24.2947 46.1293 24.4985 46.0854 24.6968C45.992 25.143 45.8766 25.5781 45.7338 26.0077C45.6678 26.2005 45.6019 26.3933 45.525 26.5861C45.4975 26.6577 45.4041 26.8725 45.481 26.6962C45.4646 26.7403 45.4426 26.7788 45.4261 26.8229C45.3547 26.9551 45.3766 26.9386 45.481 26.7678C45.6843 26.6522 45.8876 26.531 46.0854 26.4153C46.7721 26.6191 46.9699 26.6411 46.6732 26.4759C46.8051 26.5806 46.8106 26.5806 46.6897 26.4759C46.5799 26.3657 46.4645 26.2611 46.3546 26.1509C46.3161 26.1124 46.003 25.7323 46.1953 25.9857C46.1019 25.8645 46.014 25.7323 45.9315 25.6001C45.8491 25.4679 45.7722 25.3302 45.7008 25.1925C45.6733 25.1375 45.4865 24.6858 45.6019 24.9887C45.492 24.6968 45.4041 24.3994 45.3382 24.0909C45.1898 23.3859 44.3218 22.9122 43.646 23.127C42.9043 23.3694 42.5307 24.0634 42.6846 24.818Z" fill="#F0A9D6"/>
</g>
<defs>
<linearGradient id="paint0_linear" x1="-0.000165962" y1="33.0005" x2="64.8356" y2="33.0005" gradientUnits="userSpaceOnUse">
<stop stop-color="#6A90FF"/>
<stop offset="1" stop-color="#8644F9"/>
</linearGradient>
<clipPath id="clip0">
<rect width="70" height="65" fill="white" transform="translate(0 0.5)"/>
</clipPath>
</defs>
</svg>
